<?xml version="1.0" standalone="no"?>
<!DOCTYPE svg PUBLIC "-//W3C//DTD SVG 20010904//EN"
 "http://www.w3.org/TR/2001/REC-SVG-20010904/DTD/svg10.dtd">
<svg version="1.0" xmlns="http://www.w3.org/2000/svg"
 width="686.000000pt" height="686.000000pt" viewBox="0 0 686.000000 686.000000"
 preserveAspectRatio="xMidYMid meet">
<metadata>
Created by potrace 1.14, written by Peter Selinger 2001-2017
</metadata>
<g transform="translate(0.000000,686.000000) scale(0.100000,-0.100000)"
fill="#000000" stroke="none">
<path d="M1360 3430 l0 -3430 480 0 480 0 0 1578 0 1579 1393 1 c765 0 1400 1
1410 1 16 1 17 27 17 406 l0 405 -1410 0 -1410 0 0 1035 0 1034 1463 0 c804 0
1519 1 1588 1 l126 0 0 410 0 410 -2069 0 -2068 0 0 -3430z"/>
</g>
</svg>
